<svg xmlns="http://www.w3.org/2000/svg" viewBox="0 0 150 120">
<!-- SVG created with Arrow, by QuiverAI (https://quiver.ai) -->
  <style type="text/css">.cls-0 {fill:#4A5535;}
.cls-1 {fill:#BB924E;}
.cls-2 {fill:#BB914D;}</style>
  <path class="cls-0" d="m73.3 82.3c-2.3-1.7-6.3-4.9-8.3-7.7-1.3-1.9-2.5-5.3-0.7-7.2 1.9-2 5.5-1.4 8.8 2.9l0.1 0.1v-3.1c-1.7-2.2-4-4.8-7.7-4.8-3.7 0.1-6.5 2.9-6.5 7.4 0 6.4 5.7 10.2 10.8 15l3.5 2.9c-2.1 1.5-4.7 3.3-9.3 3.3h-23.3c-0.5 0-0.4-0.3-0.4-1 0-0.5 1-0.1 3.5-1 2.1-0.7 5-2.4 5-6.5v-28.2c0-2.3-1.9-4.4-4.5-4.4h-6.1l-0.1-0.7c4.7-1.8 11-4.6 19.7-10.8 0.3-0.3 0.3-0.1 0.3 0.3v23.5c-1.5 1.7-2.8 4.7-2.8 7.8 0 2.9 1.1 6 2.7 8.1v4.3c0 2.8 2 5.8 5.9 5.7 1.8 0 4.2-1 6.1-2.4l3.3-2.2v-1.3z"/>
  <path class="cls-0" d="m73.3 0.2c-5.4 5-22.3 9.8-28.9 23.8-3.3 6.9-2.7 12.7-2 19.8l3.9-3.2c-0.5-5.3-0.4-10.3 3.1-15.9 6.3-9.1 16.3-12.8 21.5-16.4l2.4-2.3 0.1-0.2c5.4 4.4 15.6 7.2 21.6 14.4 5.9 6.6 6.2 12.9 5.3 20.4l3.8 3.2c0.4-3.1 0.5-7 0.3-10.6-1.6-16.3-17.3-24.1-24.2-28-2.3-1.4-5.1-3.1-6.9-5z"/>
  <path class="cls-1" d="m88.6 38.7v23.6c1.4 1.8 2.6 4.4 2.6 7.6 0 3.1-1 5.9-2.6 8.4v4.4c0 2.4-1.8 5.5-5.4 5.5-2.4 0-4.8-1.1-6.8-3 4.5-3.7 11.1-8.1 11.2-15-0.1-4.3-2.8-7.7-7.1-7.7-2.7 0-5.6 2-7.3 4.7v3.2c1.4-2 3.8-4.1 6.3-4.1 1.9 0 3.6 1.2 3.6 3.6 0.2 3.9-4.6 8-9.8 12.4l-3.2 2.7c2.5 1.9 5.7 4.9 11.7 6h23.9 0.2-0.2c0.4 0 0.3 0 0 0 0.2 0 0.2 0 0 0 0.2 0 0.2 0 0 0 0.2 0 0.2 0 0 0 0.2 0 0.2 0 0 0 0.2 0 0.2 0 0 0 0.4 0 0.2 0 0 0 0.3 0 0 0 0 0 0.4 0 0.2 0 0 0 0.3 0 0.2 0 0 0 0.2 0 0 0 0 0 0.2 0 0.2 0 0 0 0.2 0 0.2 0 0 0 0.2 0 0.2 0 0 0 0.2 0 0.2 0 0 0 0.2 0 0.2 0 0 0 0.2 0 0.2 0 0 0 0.2 0 0.2 0 0 0 0.2 0 0.3 0 0 0 0.2 0 0.2 0 0 0 0.2 0 0.2 0 0 0 0.2 0 0.2 0 0 0 0.2 0 0.2 0 0 0 0.2 0 0.2 0 0 0 0.2 0 0.2 0 0 0 0.3 0 0.2 0 0 0 0.2 0 0.2 0 0 0 0.2 0 0.2 0 0 0 0.2 0 0.2 0 0 0 0.2 0 0.2 0 0 0 0.2 0 0 0 0 0 0.2 0 0.2 0 0 0 0.2 0 0.2 0 0 0 0.2 0 0.2 0 0 0 0.2 0 0.2 0 0 0 0.2 0 0.2 0 0 0 0.2 0 0.2 0 0 0 0.2 0 0.2 0 0 0 0.2 0 0.2 0 0 0 0.2 0 0.2 0 0 0 0 0 0.3 0 0 0 0.2 0 0 0 0 0 0.2 0 0.2 0 0 0 0.3 0 0.2 0 0 0 0.2 0 0.2 0 0 0 0.2 0 0.4 0 0 0 0.2 0 0.2 0 0 0 0.2 0 0.2 0 0 0 0.2 0 0.2 0 0 0 0.2 0 0.2 0 0 0 0.2 0 0.2 0 0 0 0.2 0 0.2 0 0 0 0.2 0 0.2 0 0 0 0.2 0 0.2 0 0 0 0.2 0 0.2 0 0 0 0.2 0 0.2 0 0 0 0.2 0 0.2 0 0 0 0.2 0 0.2 0 0 0 0.2 0 0.2 0 0 0 0.2 0 0.2 0 0 0 0.2 0 0.2 0 0 0 0.2 0 0.2 0 0 0 0.2 0 0.2 0 0 0 0.2 0 0.2 0 0 0 0.2 0 0.2 0 0 0 0.2 0 0.3 0 0 0 0.3 0 0.2 0 0 0 0.5 0 0.2 0 0 0 0.2 0 0.2 0 0 0 0.2 0 0.2 0 0 0 0.5 0 0.2 0 0 0 0.2 0 0.2 0 0 0 0.2 0 0.2 0 0 0 0.2 0 0.2 0 0 0 0.2 0 0.2 0 0 0 0.2 0 0.2 0 0 0 0.2 0 0.2 0 0 0 0.2 0 0.2 0 0 0 0.5 0 0.2 0 0 0 0.2 0 0.2 0 0 0 0.2 0 0.2 0 0 0 0.2 0 0.2 0 0 0 0.2 0 0.2 0 0 0 0.2 0 0.3 0 0 0 0.2 0 0.2 0 0 0 0.2 0 0.2 0 0 0 0.2 0 0.2 0 0 0 0.2 0 0.2 0 0 0 0.2 0 0.2 0 0 0 0.2 0 0.2 0 0 0 0.2 0 0.2 0 0 0 0.2 0 0.2 0 0 0 0.4 0 0.2 0 0 0 0.2 0 0.2 0 0 0 0.2 0 0.2 0 0 0 0.2 0 0.2 0 0 0 0.2 0 0.2 0 0 0 0.2 0 0.2 0 0 0 0.2 0 0.2 0 0 0 0.2 0 0.2 0 0 0 0.2 0 0.2 0 0 0 0.2 0 0.2 0 0 0 0.2 0 0.2 0 0 0 0.2 0 0.2 0 0 0 0.2 0 0.2 0 0 0 0.2 0 0.2 0 0 0 0.2 0 0.2 0 0 0 0.2 0 0.2 0 0 0 0.2 0 0.2 0 0 0 0.2 0 0.2 0 0 0 0.2 0 0.2 0 0 0 0.2 0 0.2 0 0 0 0.2 0 0.2 0 0 0 0.2 0 0.2 0 0 0 0.2 0 0.2 0 0 0 0.2 0 0.2 0 0 0 0.2 0 0.2 0 0 0 0.2 0 0.2 0 0 0 0.2 0 0.2 0 0 0 0.2 0 0.2 0 0 0 0.2 0 0.2 0 0 0 0.3 0 0.2 0 0 0 0 0 0.3 0 0 0 0.3 0 0.2 0 0 0 0.2 0 0.2-0.2 0.2-0.9 0-0.6-0.4-0.1-3.3-1.1-1.9-0.6-4.9-2.3-4.9-6.5v-28.4c0-2.4 2-4.3 4.5-4.3h6l0.1-0.6c-6-2.3-10.7-4.5-19.3-10.5-0.3-0.4-0.4-0.4-0.4 0z"/>
  <path class="cls-1" d="m73.2 15.8-2.8 2.9h-3.8v3.8l-2.9 2.5 2.8 2.5v3.8h3.9l2.8 2.9 2.7-2.9h3.7v-3.8l2.8-2.5-2.8-2.5v-3.7h-3.6l-2.8-3zm-0.1 1.9 2.3 2.2h3v3.1l2.1 2-2.1 2v3.1h-2.9l-2.3 2.2-2.5-2.3h-2.9v-3l-2.2-2 2.2-1.9v-3.2h3l2.3-2.2z"/>
  <path class="cls-1" d="m72.3 45.1v4h-4.1c-0.4 0-0.3 0.4-0.3 1.2 0 0.5 0.3 0.5 0.3 0.5h4.1v4.1c0 0.4 0.4 0.3 1.2 0.3 0.4 0 0.5-0.3 0.5-0.3v-4.1h3.9c0.4 0 0.3-0.3 0.3-1.2 0-0.4-0.3-0.5-0.3-0.5h-3.9v-4c0-0.4-0.2-0.5-0.4-0.5-1.3 0-1.3-0.1-1.3 0.5z"/>
  <path class="cls-0" d="m6.2 101.2-0.1 16.2c0 1.2 0.9 1.7 1.7 1.7v0.2h-5.5v-0.3c0.9 0 1.7-0.4 1.7-1.6v-13.2c0-1-0.3-1.1-2.3-0.4l-0.1-0.3c1.9-0.6 3.3-1.1 4.6-2.3z"/>
  <path class="cls-0" d="m13.8 101.6h6.8c3.1 0 6.2 1.1 6.2 4.7 0 3.1-2.5 5.1-7 5.1h-2v5.9c0 1.2 0.7 1.7 1.6 1.8v0.2h-5.6v-0.3c0.8 0 1.5-0.4 1.5-1.6v-14.2c0-1-0.7-1.4-1.5-1.4v-0.2zm4 9.4h2c2.9 0 4.6-1.3 4.6-4.5 0-2.6-1.5-4.5-4.2-4.5h-1.6c-0.6 0-0.8 0.3-0.8 0.9v8.1z"/>
  <path class="cls-0" d="m32.4 100.7v16.7c0 1.2 0.7 1.7 1.4 1.7v0.2h-5.1v-0.3c0.7 0 1.4-0.4 1.4-1.6v-14.4c0-1.1-0.4-1.2-1.5-1.2v-0.2l3.8-0.9z"/>
  <path class="cls-0" d="m47.9 107.1v10.1c0 1.4 0.6 1.8 1.4 1.8v0.3h-3.7v-2.2c-0.7 1.4-2.2 2.4-4.5 2.4s-3.7-1.1-3.7-3.7v-6.4c0-1-0.4-1.4-1.4-1.4v-0.3l3.6-0.6v8.9c0 2.4 1.9 2.9 3.4 2.6 1.1-0.2 2.4-1.3 2.6-2.4v-6.8c0-1-0.5-1.5-1.5-1.4v-0.3l3.8-0.6z"/>
  <path class="cls-0" d="m61 116.2c0 2.4-2.3 3.3-4.8 3.3-1.5 0-2.7-0.2-4.3-0.9v-2.7h0.3c0.4 1.7 1.6 3.2 4 3.2 2.1 0 2.9-1.1 2.9-2.2 0-3.4-7-1.8-7-6.2 0-2.1 2.1-3.7 4.4-3.7 1.4 0 2.4 0.3 3.7 0.7v2.8h-0.3c-0.3-1.6-1.3-3.1-3.4-3.1-1.7 0-2.7 1-2.7 2.2 0 3.2 7.2 1.9 7.2 6.6z"/>
  <path class="cls-0" d="m69.3 101.2v16.2c0 1.2 0.8 1.7 1.7 1.7v0.2h-6v-0.3c0.9 0 1.8-0.4 1.8-1.6v-13.2c0-1-0.3-1.1-2.6-0.4v-0.3c1.9-0.6 3.6-1.1 5-2.3h0.1z"/>
  <path class="cls-2" d="m99.1 117.3c0 1.2 0.7 1.7 1.5 1.8v0.2h-5.9v-0.3c0.9 0 1.9-0.4 1.9-1.6l-0.2-14.5-7.1 16.4h-0.3l-7.5-16.1-0.3 13.7c0 1.7 1 2.1 1.8 2.1v0.3h-4.4v-0.3c0.9 0 1.8-0.4 1.8-1.7l0.3-14.1c0-1-0.8-1.4-1.6-1.5v-0.1h4.2l6.6 14.5 6.4-14.5h4.1v0.2c-0.8 0-1.7 0.6-1.7 1.6l0.4 13.9z"/>
  <path class="cls-2" d="m113.9 118.6h0.1-0.1 0.1zm0 0zm0 0c-0.5 0-1.5 0.1-1.5-1.7v-6c0-2.7-1.8-3.9-4.7-3.9-2.3 0-4.1 1.5-4.1 1.5l0.4 2.6h0.3c0.5-1.7 1.4-3.5 3.4-3.5 1.8 0 2.5 1.3 2.5 2.8v1.9l-3.1 0.8c-2.7 0.7-4.4 1.8-4.4 3.8 0 1.6 1.3 2.7 3 2.7s3.7-0.7 4.5-2.6v0.7c0 2 1.8 2.2 3.7 1v-0.3 0.2zm-3.7-2c-0.6 1.1-1.6 2-3.2 2-1.2-0.1-2.2-0.7-2.2-2.2 0-1.8 1.4-2.7 2.6-3l2.8-0.6v3.8z"/>
  <path class="cls-2" d="m122.6 117.7 0.1 0.3c-0.8 0.9-1.6 1.5-3.2 1.5s-2.7-0.9-2.7-2.9v-8.7h-1.8v-0.5h1.8v-2.5l2.1-1v3.5h3.3v0.5h-3.3v8.7c0 2.3 2.7 2.7 3.7 1.1z"/>
  <path class="cls-2" d="m134.6 117-0.1 0.3c-1 1.4-2.3 2.2-4.5 2.2-3.6 0-6.2-2.2-6.2-5.9 0-3.2 2.4-6.6 6.3-6.6 1.6 0 2.9 0.4 4.1 0.9v2.8h-0.2c-0.6-1.6-1.6-3.3-3.6-3.3-2.3 0-4.2 2-4.2 5.7 0.2 3.3 2 5.5 4.7 5.5 1.2 0 2.7-0.6 3.7-1.9v0.3z"/>
  <path class="cls-2" d="m148.4 119.1v0.2h-4.5v-0.3c0.6 0 1.3-0.5 1.3-1.6v-5.8c0-2.3-0.6-3.9-2.6-3.9-1.5 0-2.7 1-3.1 2.4v7.3c0 1.2 0.6 1.6 1.4 1.7v0.2h-4.7v-0.3c0.8 0 1.4-0.4 1.4-1.6v-14.4c0-1.2-0.5-1.3-1.5-1.2v-0.3l3.5-0.8v8.9c0.4-1 1.9-2.6 3.9-2.6 2.4 0 3.7 1.4 3.7 3.9v6.5c0 1.2 0.7 1.6 1.2 1.7z"/>
</svg>